<?xml version="1.0" encoding="UTF-8" standalone="no"?>
<svg
   xmlns:dc="http://purl.org/dc/elements/1.1/"
   xmlns:cc="http://creativecommons.org/ns#"
   xmlns:rdf="http://www.w3.org/1999/02/22-rdf-syntax-ns#"
   xmlns:svg="http://www.w3.org/2000/svg"
   xmlns="http://www.w3.org/2000/svg"
   xmlns:xlink="http://www.w3.org/1999/xlink"
   xmlns:sodipodi="http://sodipodi.sourceforge.net/DTD/sodipodi-0.dtd"
   xmlns:inkscape="http://www.inkscape.org/namespaces/inkscape"
   width="276"
   height="54"
   id="svg15742"
   version="1.1"
   inkscape:version="1.0.2 (e86c870879, 2021-01-15)"
   sodipodi:docname="ccbrowse.svg"
   inkscape:export-filename="/mnt/data1/www/ccbrowse/www/img/ccbrowse.png"
   inkscape:export-xdpi="90"
   inkscape:export-ydpi="90">
  <defs
     id="defs15744">
    <linearGradient
       inkscape:collect="always"
       xlink:href="#linearGradient13227"
       id="linearGradient13233"
       x1="80.870392"
       y1="382.44128"
       x2="84.435692"
       y2="410.35391"
       gradientUnits="userSpaceOnUse"
       gradientTransform="matrix(3.1740014,0,0,3.1740014,-30.390224,-1362.5226)" />
    <linearGradient
       id="linearGradient13227">
      <stop
         style="stop-color:#ffffff;stop-opacity:1;"
         offset="0"
         id="stop13229" />
      <stop
         style="stop-color:#ffffff;stop-opacity:0;"
         offset="1"
         id="stop13231" />
    </linearGradient>
    <linearGradient
       inkscape:collect="always"
       xlink:href="#linearGradient13227"
       id="linearGradient15698"
       x1="80.870392"
       y1="382.44128"
       x2="84.435692"
       y2="410.35391"
       gradientUnits="userSpaceOnUse"
       gradientTransform="translate(0.32868162,0.55622972)" />
    <linearGradient
       id="linearGradient15700">
      <stop
         style="stop-color:#ffffff;stop-opacity:1;"
         offset="0"
         id="stop15702" />
      <stop
         style="stop-color:#ffffff;stop-opacity:0;"
         offset="1"
         id="stop15704" />
    </linearGradient>
    <linearGradient
       inkscape:collect="always"
       xlink:href="#linearGradient13227"
       id="linearGradient15706"
       x1="80.870392"
       y1="382.44128"
       x2="84.435692"
       y2="410.35391"
       gradientUnits="userSpaceOnUse"
       gradientTransform="translate(0.32868162,0.55622972)" />
    <linearGradient
       id="linearGradient15708">
      <stop
         style="stop-color:#ffffff;stop-opacity:1;"
         offset="0"
         id="stop15710" />
      <stop
         style="stop-color:#ffffff;stop-opacity:0;"
         offset="1"
         id="stop15712" />
    </linearGradient>
    <linearGradient
       inkscape:collect="always"
       xlink:href="#linearGradient13211"
       id="linearGradient13217"
       x1="50.337837"
       y1="389.92743"
       x2="50.337837"
       y2="416.12704"
       gradientUnits="userSpaceOnUse"
       gradientTransform="translate(0.70792875,0.80906073)" />
    <linearGradient
       id="linearGradient13211">
      <stop
         style="stop-color:#ffffff;stop-opacity:1;"
         offset="0"
         id="stop13213" />
      <stop
         style="stop-color:#dedede;stop-opacity:1;"
         offset="1"
         id="stop13215" />
    </linearGradient>
    <linearGradient
       inkscape:collect="always"
       xlink:href="#linearGradient13211"
       id="linearGradient15718"
       x1="50.337837"
       y1="389.92743"
       x2="50.337837"
       y2="416.12704"
       gradientUnits="userSpaceOnUse"
       gradientTransform="translate(0.70792875,0.80906073)" />
    <linearGradient
       id="linearGradient15720">
      <stop
         style="stop-color:#ffffff;stop-opacity:1;"
         offset="0"
         id="stop15722" />
      <stop
         style="stop-color:#dedede;stop-opacity:1;"
         offset="1"
         id="stop15724" />
    </linearGradient>
    <linearGradient
       inkscape:collect="always"
       xlink:href="#linearGradient13211"
       id="linearGradient15726"
       x1="50.337837"
       y1="389.92743"
       x2="50.337837"
       y2="416.12704"
       gradientUnits="userSpaceOnUse"
       gradientTransform="translate(0.70792875,0.80906073)" />
    <linearGradient
       id="linearGradient15728">
      <stop
         style="stop-color:#ffffff;stop-opacity:1;"
         offset="0"
         id="stop15730" />
      <stop
         style="stop-color:#dedede;stop-opacity:1;"
         offset="1"
         id="stop15732" />
    </linearGradient>
    <linearGradient
       y2="416.12704"
       x2="50.337837"
       y1="389.92743"
       x1="50.337837"
       gradientTransform="matrix(2.9742103,0,0,2.9742104,-30.455058,-172.99516)"
       gradientUnits="userSpaceOnUse"
       id="linearGradient15740"
       xlink:href="#linearGradient13211"
       inkscape:collect="always" />
  </defs>
  <sodipodi:namedview
     id="base"
     pagecolor="#ffffff"
     bordercolor="#666666"
     borderopacity="1.0"
     inkscape:pageopacity="0.0"
     inkscape:pageshadow="2"
     inkscape:zoom="2.8"
     inkscape:cx="176.4798"
     inkscape:cy="35.174395"
     inkscape:document-units="px"
     inkscape:current-layer="layer1"
     showgrid="false"
     inkscape:window-width="1920"
     inkscape:window-height="1055"
     inkscape:window-x="0"
     inkscape:window-y="25"
     inkscape:window-maximized="1"
     inkscape:document-rotation="0" />
  <metadata
     id="metadata15747">
    <rdf:RDF>
      <cc:Work
         rdf:about="">
        <dc:format>image/svg+xml</dc:format>
        <dc:type
           rdf:resource="http://purl.org/dc/dcmitype/StillImage" />
        <dc:title />
      </cc:Work>
    </rdf:RDF>
  </metadata>
  <g
     inkscape:label="Layer 1"
     inkscape:groupmode="layer"
     id="layer1"
     transform="translate(0,-998.3622)">
    <g
       aria-label="ccbrowse"
       transform="scale(0.99529921,1.004723)"
       id="text4562"
       style="color:#000000;font-style:normal;font-variant:normal;font-weight:bold;font-stretch:normal;line-height:0%;font-family:Asap;-inkscape-font-specification:'Bitstream Vera Sans Bold';text-indent:0;text-align:start;text-decoration:none;text-decoration-line:none;letter-spacing:normal;word-spacing:normal;text-transform:none;writing-mode:lr-tb;direction:ltr;text-anchor:start;display:inline;overflow:visible;visibility:visible;fill:url(#linearGradient15740);fill-opacity:1;fill-rule:nonzero;stroke:none;stroke-width:1px;marker:none;enable-background:accumulate">
      <path
         d="m 16.937544,1009.3237 c -7.7311157,0 -15.9328215,3.7647 -15.9328215,17.8152 0,12.9748 5.6470761,18.1513 16.5378655,18.1513 5.848758,0 10.554654,-1.8824 10.554654,-3.4286 0,-0.9412 -1.344541,-3.4286 -2.285721,-3.4286 -0.06723,0 -0.336135,0.1345 -0.739498,0.2689 -1.210088,0.6051 -3.831944,1.748 -7.596662,1.748 -7.5966617,0 -10.4201998,-4.0337 -10.4201998,-13.4455 0,-9.3445 3.8319448,-12.8403 9.7479288,-12.8403 3.630263,0 6.117666,1.0756 7.327754,1.6134 0.403362,0.1345 0.605044,0.2689 0.739498,0.2689 0.873952,0 2.151267,-2.5546 2.151267,-3.6302 0,-1.6135 -4.907578,-3.0925 -10.084065,-3.0925 z"
         style="font-weight:normal;-inkscape-font-specification:Asap;fill:url(#linearGradient15740);fill-opacity:1"
         id="path858" />
      <path
         d="m 49.542597,1009.3237 c -7.731116,0 -15.932822,3.7647 -15.932822,17.8152 0,12.9748 5.647077,18.1513 16.537866,18.1513 5.848758,0 10.554654,-1.8824 10.554654,-3.4286 0,-0.9412 -1.344542,-3.4286 -2.285721,-3.4286 -0.06723,0 -0.336135,0.1345 -0.739498,0.2689 -1.210088,0.6051 -3.831944,1.748 -7.596662,1.748 -7.596662,0 -10.4202,-4.0337 -10.4202,-13.4455 0,-9.3445 3.831945,-12.8403 9.747929,-12.8403 3.630263,0 6.117666,1.0756 7.327754,1.6134 0.403362,0.1345 0.605044,0.2689 0.739498,0.2689 0.873952,0 2.151267,-2.5546 2.151267,-3.6302 0,-1.6135 -4.907578,-3.0925 -10.084065,-3.0925 z"
         style="font-weight:normal;-inkscape-font-specification:Asap;fill:url(#linearGradient15740);fill-opacity:1"
         id="path860" />
      <path
         d="m 73.071992,994.19761 h -1.882358 c -2.823538,0 -4.033626,0.7395 -4.033626,2.15127 V 1042.87 c 0,1.4118 1.210088,2.1513 4.033626,2.1513 h 0.806725 c 2.151267,0 3.495809,-0.2689 3.899171,-1.7479 0.268909,-0.9412 0.47059,-1.9496 0.672271,-2.8908 1.546224,2.8908 4.840351,5.0421 9.008431,5.0421 7.260527,0 12.571467,-6.4538 12.571467,-18.1514 0,-10.958 -5.109259,-18.084 -14.184917,-18.084 -3.159674,0 -5.445395,1.0756 -6.857164,2.084 v -14.92442 c 0,-1.41177 -1.210088,-2.15127 -4.033626,-2.15127 z m 8.739523,22.85719 c 4.235307,0 6.25212,3.4958 6.25212,10.2185 0,6.5211 -1.747905,10.0169 -5.445395,10.0169 -2.55463,0 -4.302534,-1.8824 -5.512622,-3.9664 v -14.9917 c 1.075634,-0.605 2.621857,-1.2773 4.705897,-1.2773 z"
         style="font-size:67.2271px;line-height:1.25;fill:url(#linearGradient15740);fill-opacity:1"
         id="path862" />
      <path
         d="m 121.87875,1009.1893 c -3.89917,0 -5.91598,2.5546 -7.32775,5.1092 -0.40336,-1.6807 -0.53782,-4.3697 -2.68909,-4.3697 -1.68067,0 -7.52943,0.5378 -7.52943,2.1512 0,1.3446 0.80673,2.7563 0.80673,9.479 v 21.311 c 0,1.4118 1.21008,2.1513 4.03362,2.1513 h 1.88236 c 2.82354,0 4.03363,-0.7395 4.03363,-2.1513 v -21.5799 c 0.80672,-1.3445 2.62185,-3.3613 5.37816,-3.3613 1.34455,0 2.2185,0.5378 3.15968,0.5378 1.34454,0 2.08404,-4.3698 2.08404,-5.6471 0,-1.3445 -0.53782,-3.6302 -3.83195,-3.6302 z"
         style="font-size:67.2271px;line-height:1.25;fill:url(#linearGradient15740);fill-opacity:1"
         id="path864" />
      <path
         d="m 144.73591,1009.1893 c -10.68911,0 -16.33618,6.3865 -16.33618,18.084 0,11.6976 5.64707,18.1514 16.33618,18.1514 10.68911,0 16.26896,-6.4538 16.26896,-18.1514 0,-11.6975 -5.57985,-18.084 -16.26896,-18.084 z m 0,7.8655 c 4.30254,0 6.18489,3.4958 6.18489,10.2185 0,6.7228 -1.88235,10.2858 -6.18489,10.2858 -4.30253,0 -6.25212,-3.563 -6.25212,-10.2858 0,-6.7227 1.94959,-10.2185 6.25212,-10.2185 z"
         style="font-size:67.2271px;line-height:1.25;fill:url(#linearGradient15740);fill-opacity:1"
         id="path866" />
      <path
         d="m 208.33263,1009.5926 c -2.42017,0 -3.69749,0.4706 -3.9664,1.4118 l -4.63867,17.7479 -0.80672,2.958 c -0.20168,-0.9411 -0.47059,-1.8151 -0.67227,-2.7563 l -4.30254,-17.9496 c -0.20168,-0.9412 -1.81513,-1.4118 -3.69749,-1.4118 h -1.61345 c -2.15126,0 -3.49581,0.4706 -3.69749,1.4118 l -4.30253,17.5463 c -0.26891,1.0756 -0.53782,2.084 -0.80673,3.1596 l -0.73949,-2.958 -4.57145,-17.7479 c -0.2689,-1.0084 -1.68067,-1.4118 -5.31094,-1.4118 -2.89076,0 -4.16808,0.6723 -4.16808,1.7479 0,0.2689 0,0.6051 0.13446,1.0084 l 8.47061,31.2606 c 0.26891,0.9412 1.479,1.4118 3.69749,1.4118 h 3.29413 c 1.88236,0 3.49581,-0.4706 3.69749,-1.4118 l 3.83194,-15.9328 0.7395,-2.958 c 0.26891,0.9412 0.47059,1.9496 0.7395,2.8908 l 4.10085,16 c 0.26891,0.9412 1.54623,1.4118 3.69749,1.4118 h 3.29413 c 1.88236,0 3.42858,-0.4706 3.69749,-1.4118 l 7.9328,-31.2606 c 0.0672,-0.4033 0.13445,-0.7395 0.13445,-1.0084 0,-1.0756 -1.27731,-1.7479 -4.16808,-1.7479 z"
         style="font-size:67.2271px;line-height:1.25;fill:url(#linearGradient15740);fill-opacity:1"
         id="path868" />
      <path
         d="m 229.17302,1009.1893 c -7.46221,0 -12.23533,4.0336 -12.23533,11.0252 0,6.7227 4.36976,8.8067 7.66389,10.0841 3.02522,1.21 5.78153,1.8823 5.78153,4.4369 0,1.8152 -1.34454,2.8236 -3.89917,2.8236 -3.56304,0 -5.78153,-1.8824 -6.78994,-1.8824 -1.34454,0 -3.56304,3.4286 -3.56304,5.1765 0,2.8908 6.11767,4.5715 11.1597,4.5715 8.40339,0 13.17651,-4.6387 13.17651,-11.4959 0,-5.3109 -2.82354,-7.7983 -5.84876,-9.2773 -3.56303,-1.6807 -7.59666,-2.353 -7.59666,-5.311 0,-1.6806 1.34454,-2.3529 3.56304,-2.3529 3.15967,0 5.04203,1.4118 5.78153,1.4118 1.27731,0 2.89076,-3.832 2.89076,-5.311 0,-2.8235 -6.18489,-3.8991 -10.08406,-3.8991 z"
         style="font-size:67.2271px;line-height:1.25;fill:url(#linearGradient15740);fill-opacity:1"
         id="path870" />
      <path
         d="m 260.97131,1009.1893 c -9.61348,0 -16.33619,5.1092 -16.33619,18.3529 0,10.8236 5.37817,17.8825 17.54628,17.8825 3.76471,0 12.10087,-1.479 12.10087,-4.8404 0,-1.3445 -2.01681,-5.1093 -3.4958,-5.1093 -0.94118,0 -3.89918,2.0841 -8.13448,2.0841 -4.36976,0 -7.26053,-1.6807 -7.73112,-7.0589 h 17.14291 c 0.87395,0 3.42858,-2.8235 3.42858,-3.9664 0,-9.3445 -3.9664,-17.3445 -14.52105,-17.3445 z m 0,7.8655 c 3.36135,0 4.84035,2.8908 4.84035,6.79 h -10.89079 c 0.80673,-5.1765 3.2269,-6.79 6.05044,-6.79 z"
         style="font-size:67.2271px;line-height:1.25;fill:url(#linearGradient15740);fill-opacity:1"
         id="path872" />
    </g>
  </g>
</svg>
